<svg version="1.1" id="Layer_1" xmlns="http://www.w3.org/2000/svg" xmlns:xlink="http://www.w3.org/1999/xlink" width x="0px" y="0px"
	 width="100%" viewBox="0 0 496 496" enable-background="new 0 0 496 496" xml:space="preserve">
<path fill="#000000" opacity="1.000000" stroke="none" 
	d="
M1.000000,411.000000 
	C1.000000,327.979095 1.000000,244.958206 1.225959,161.616623 
	C5.717193,162.249100 7.840047,158.596878 10.611362,156.700485 
	C13.818819,154.505646 16.623533,152.785355 20.650084,154.442886 
	C23.664417,155.683762 26.439322,154.684280 29.014256,152.690872 
	C34.147152,148.717239 39.671665,145.321762 45.200008,141.916122 
	C54.000801,136.494537 62.009624,130.021637 68.690788,122.093803 
	C78.376572,110.600739 90.976555,103.544197 105.083359,99.739197 
	C113.902977,97.360298 121.938942,93.587677 130.009781,89.750305 
	C135.979935,86.911736 141.221359,83.003479 140.515045,75.042442 
	C140.404388,73.795090 140.969574,72.404396 141.493164,71.197517 
	C145.219315,62.608807 143.884857,53.930271 142.174149,45.198425 
	C141.055252,39.487236 139.778809,33.766785 139.255219,27.988651 
	C138.502731,19.684570 145.761414,13.389991 153.868118,14.900253 
	C161.891434,16.394981 169.973648,17.452652 178.053146,18.584860 
	C196.372787,21.152054 212.239761,16.825964 224.955276,2.551317 
	C223.046997,2.054220 221.023499,1.527110 219.000000,1.000000 
	C278.354218,1.000000 337.708466,1.000000 397.271851,1.129790 
	C396.592041,1.898731 395.110077,1.647187 394.733551,3.056268 
	C402.808411,15.094547 404.577240,16.241179 418.757935,17.904436 
	C426.180939,18.775076 433.642914,19.318718 441.060608,20.227560 
	C448.424072,21.129753 455.649414,19.978651 462.890137,19.100498 
	C467.223724,18.574930 470.529144,16.701542 472.437073,12.230271 
	C474.325165,7.805562 478.076172,5.872954 483.069122,7.258496 
	C487.702087,8.544134 492.355560,9.755785 497.000000,11.000004 
	C497.000000,145.687561 497.000000,280.375122 496.694885,415.669464 
	C489.809387,421.947662 482.678009,426.684845 474.648224,430.160004 
	C469.414429,432.425140 464.137482,433.943665 458.676758,432.101746 
	C446.390228,427.957367 433.897461,428.558441 421.178955,428.823212 
	C400.846252,429.246460 382.796204,436.160492 365.527161,445.827240 
	C354.027130,452.264648 343.548279,459.964905 334.978851,470.360962 
	C326.862000,480.208099 316.298676,487.614777 305.826324,495.478119 
	C307.534088,496.100830 308.767059,496.550415 310.000000,497.000000 
	C301.312439,497.000000 292.624878,497.000000 283.617554,496.850983 
	C283.739624,496.232788 284.463074,495.659180 283.771088,495.072174 
	C280.868103,492.609436 278.055573,489.982513 274.895721,487.890259 
	C262.455261,479.652954 248.481674,475.879730 233.777069,476.137695 
	C210.836029,476.540131 187.927979,478.421844 164.956482,477.996216 
	C150.370560,477.725922 136.002930,476.185791 122.841888,469.297546 
	C113.773018,464.551086 104.237175,461.368469 94.358482,458.846649 
	C83.250603,456.011047 72.073845,453.233154 62.150154,447.046387 
	C56.185200,443.327667 49.805836,440.732178 42.795753,439.409210 
	C36.877506,438.292267 31.438868,435.643066 26.869904,431.515076 
	C20.570667,425.823822 14.254608,420.132751 7.189726,415.401947 
	C5.078718,413.988373 4.406329,410.537079 1.000000,411.000000 
M309.331238,184.932449 
	C300.678864,187.557312 292.480865,191.283035 284.673004,195.764771 
	C258.728943,210.656723 239.716110,230.998322 233.788422,261.439941 
	C230.203720,279.849274 233.387482,297.487427 239.752258,314.791168 
	C240.959961,318.074524 242.578171,318.672485 245.154846,316.199799 
	C245.875931,315.507812 246.640656,314.861572 247.376434,314.184631 
	C281.057068,283.196564 312.121246,249.852859 338.854309,212.606888 
	C339.492615,211.717590 339.912903,210.450104 341.530060,210.638107 
	C342.280762,212.888092 340.547119,214.347183 339.646729,215.973862 
	C318.019440,255.047028 290.118744,288.903473 255.401581,317.073944 
	C254.256485,318.003082 252.566010,318.798218 253.141769,320.560608 
	C253.752655,322.430481 255.720322,322.571869 257.352875,322.589844 
	C264.340393,322.666687 271.295288,322.711731 278.296844,321.899872 
	C307.161011,318.553101 330.399292,305.436493 347.842255,282.283844 
	C362.429138,262.922119 370.037720,240.842255 372.663696,216.848129 
	C373.831329,206.179321 373.701355,195.586243 372.550110,184.956802 
	C371.817535,178.192871 370.861145,177.370819 364.262512,177.172058 
	C345.771423,176.615097 327.693573,178.928055 309.331238,184.932449 
M183.674530,272.809967 
	C173.644485,261.466034 162.775681,250.916168 152.326904,239.959839 
	C181.528519,259.203247 205.079254,283.998627 223.795746,313.770081 
	C226.247574,310.540588 226.355087,310.556976 226.709152,308.233856 
	C230.392471,284.065765 224.755753,262.491180 207.798965,244.617065 
	C188.745331,224.532639 164.589249,216.027893 137.350708,215.244705 
	C130.868378,215.058304 130.185333,215.588791 129.299088,221.849030 
	C127.051926,237.722443 128.023148,253.438629 132.465515,268.813477 
	C142.691025,304.203491 169.859573,331.407410 212.772293,323.747620 
	C220.734802,322.326294 221.639999,320.253113 216.828278,313.720673 
	C206.547852,299.763855 195.711166,286.256287 183.674530,272.809967 
z"/>
</svg>